<svg width="45" height="45" viewBox="0 0 45 45" fill="none" xmlns="http://www.w3.org/2000/svg">
<rect x="0.60022" y="0.733658" width="43.1334" height="43.1334" rx="21.5667" fill="white"/>
<path d="M22.1669 23.199C22.6632 23.199 23.0655 22.7967 23.0655 22.3004C23.0655 21.8041 22.6632 21.4018 22.1669 21.4018C21.6706 21.4018 21.2683 21.8041 21.2683 22.3004C21.2683 22.7967 21.6706 23.199 22.1669 23.199Z" stroke="#98A2B3" stroke-width="1.79723" stroke-linecap="round" stroke-linejoin="round"/>
<path d="M28.4572 23.199C28.9535 23.199 29.3558 22.7967 29.3558 22.3004C29.3558 21.8041 28.9535 21.4018 28.4572 21.4018C27.9609 21.4018 27.5586 21.8041 27.5586 22.3004C27.5586 22.7967 27.9609 23.199 28.4572 23.199Z" stroke="#98A2B3" stroke-width="1.79723" stroke-linecap="round" stroke-linejoin="round"/>
<path d="M15.8766 23.199C16.3729 23.199 16.7753 22.7967 16.7753 22.3004C16.7753 21.8041 16.3729 21.4018 15.8766 21.4018C15.3804 21.4018 14.978 21.8041 14.978 22.3004C14.978 22.7967 15.3804 23.199 15.8766 23.199Z" stroke="#98A2B3" stroke-width="1.79723" stroke-linecap="round" stroke-linejoin="round"/>
<rect x="0.60022" y="0.733658" width="43.1334" height="43.1334" rx="21.5667" stroke="#D0D5DD" stroke-width="1.07834" stroke-linecap="round" stroke-linejoin="round" stroke-dasharray="1.08 3.24"/>
</svg>
