<svg width="45" height="45" viewBox="0 0 45 45" fill="none" xmlns="http://www.w3.org/2000/svg">
<rect x="1.26312" y="0.733658" width="43.1334" height="43.1334" rx="21.5667" fill="white"/>
<path d="M30.7299 22.8462C30.9492 22.6582 31.0589 22.5641 31.0991 22.4523C31.1344 22.3541 31.1344 22.2467 31.0991 22.1485C31.0589 22.0366 30.9492 21.9426 30.7299 21.7545L23.118 15.2301C22.7403 14.9064 22.5515 14.7445 22.3917 14.7406C22.2528 14.7371 22.12 14.7982 22.0323 14.9059C21.9312 15.0298 21.9312 15.2785 21.9312 15.7759V19.6356C20.013 19.9712 18.2573 20.9432 16.9527 22.4027C15.5303 23.9938 14.7434 26.0529 14.7423 28.1871V28.7371C15.6853 27.6012 16.8626 26.6825 18.1937 26.0439C19.3672 25.4809 20.6358 25.1475 21.9312 25.0596V28.8249C21.9312 29.3222 21.9312 29.5709 22.0323 29.6949C22.12 29.8026 22.2528 29.8636 22.3917 29.8602C22.5515 29.8562 22.7403 29.6944 23.118 29.3707L30.7299 22.8462Z" stroke="#98A2B3" stroke-width="1.79723" stroke-linecap="round" stroke-linejoin="round"/>
<rect x="1.26312" y="0.733658" width="43.1334" height="43.1334" rx="21.5667" stroke="#D0D5DD" stroke-width="1.07834" stroke-linecap="round" stroke-linejoin="round" stroke-dasharray="1.08 3.24"/>
</svg>
